<?xml version="1.0" encoding="UTF-8"?>
<svg xmlns="http://www.w3.org/2000/svg" xmlns:xlink="http://www.w3.org/1999/xlink" width="512" height="512" viewBox="0 0 128 128"><defs><linearGradient id="a" x1="124.985" y1="129.987" x2="3.014" y2="8.015" gradientUnits="userSpaceOnUse"><stop offset="0" stop-color="#ec3a53"/><stop offset="1" stop-color="#ffde46"/></linearGradient></defs><path d="M126.25,39.258a1.75,1.75,0,0,0,1.75-1.75V11.755a1.75,1.75,0,0,0-1.75-1.75H114.818V1.747A1.75,1.75,0,0,0,113.068,0h-12a1.751,1.751,0,0,0-1.75,1.75v8.258H28.682V1.747A1.751,1.751,0,0,0,26.932,0h-12a1.75,1.75,0,0,0-1.75,1.75v8.258H1.75A1.75,1.75,0,0,0,0,11.755V37.508a1.75,1.75,0,0,0,1.75,1.75H13.182V52.005H1.75A1.75,1.75,0,0,0,0,53.755V79.508a1.75,1.75,0,0,0,1.75,1.75H13.182V114.5H6.75A6.758,6.758,0,0,0,0,121.247v5A1.75,1.75,0,0,0,1.75,128H40.113a1.75,1.75,0,0,0,1.75-1.75v-5a6.758,6.758,0,0,0-6.75-6.75H28.682V81.258H99.318V114.5H92.887a6.758,6.758,0,0,0-6.75,6.75v5a1.75,1.75,0,0,0,1.75,1.75H126.25a1.75,1.75,0,0,0,1.75-1.75v-5a6.758,6.758,0,0,0-6.75-6.75h-6.432v-4.122a1.75,1.75,0,0,0-3.5,0V114.5h-8.5V81.258h8.5v4.367a1.75,1.75,0,0,0,3.5,0V81.258H126.25a1.75,1.75,0,0,0,1.75-1.75V53.755a1.75,1.75,0,0,0-1.75-1.75H114.818V39.258ZM113.068,118h8.182a3.254,3.254,0,0,1,3.25,3.25v3.25H89.637v-3.25a3.254,3.254,0,0,1,3.25-3.25h20.181ZM124.5,35.758H105.618l8.647-22.253H124.5Zm-56.947,42L76.2,55.505h22.31L89.863,77.758ZM99.318,52.005H28.682V39.258H99.318ZM25.734,77.758H17.489l8.648-22.253h8.245ZM60.447,13.505,51.8,35.758H29.489l8.647-22.253Zm38.064,0L89.863,35.758H67.553L76.2,13.505Zm2.557,22.253h-7.45l8.648-22.253h8.245l-8.648,22.253ZM102.818,3.5h8.5v6.508h-8.5ZM72.446,13.505,63.8,35.758H55.554L64.2,13.505ZM25.734,35.758H17.489l8.648-22.253h8.245ZM16.682,3.5h8.5v6.508h-8.5ZM3.5,13.505H22.382L13.735,35.758H3.5ZM16.682,39.258h8.5V52.005h-8.5ZM3.5,55.505H22.382L13.735,77.758H3.5Zm34.863,65.742v3.25H3.5v-3.25A3.254,3.254,0,0,1,6.75,118H35.113A3.254,3.254,0,0,1,38.363,121.247ZM16.682,114.5V81.258h8.5V114.5ZM53,77.758H29.489l8.647-22.253H60.447L56.369,66a1.75,1.75,0,1,0,3.262,1.267l4.57-11.76h8.245L63.8,77.758Zm49.27-22.253h8.245l-8.648,22.253H93.618ZM124.5,77.758H105.618l8.647-22.253H124.5ZM111.318,52.005h-8.5V39.258h8.5Zm3.5,44.214v3.562a1.75,1.75,0,0,1-3.5,0V96.219a1.75,1.75,0,0,1,3.5,0Z" fill="url(#a)"/></svg>
